{"title":"Hook-Ups - Destroying America [2001][skateboarding].avi","uid":4678744,"size":653388800,"categoryP":"video","categoryS":"movies","magnet":"?xt=urn:btih:b93966257861eac55dfc016e69fb338ae27f9dd7&amp;dn=Hook-Ups+-+Destroying+America+%5B2001%5D%5Bskateboarding%5D.avi&amp;tr=udp%3A%2F%2Ftracker.openbittorrent.com%3A80&amp;tr=udp%3A%2F%2Fopen.demonii.com%3A1337&amp;tr=udp%3A%2F%2Ftracker.coppersurfer.tk%3A6969&amp;tr=udp%3A%2F%2Fexodus.desync.com%3A6969","seeders":1,"leechers":0,"uploader":"highateus","files":1,"time":1232996091,"description":"Hook Ups - Destroying America DVD:\n\n Five years in the making, with a cast of thousands, Destroying America comes on the heels of the best selling skateboard video of all time, The End. A film this dangerous hasn't been seen since Cannonball Run 2. Heath Kirchart and Jeremy Klein are two skateboarders just out to have a good time in a race across the good old US of A. Rescued after a near death skateboarding accident, the two show off their amazing ability to cause destruction while a sinister cop, with an agenda of his own, tires to bring them down. The top notch story, an all-star cast (Eric Estrada, Tony Hawk, Ming Tran), and a special guest appearance by the Hook-Ups Destruction Van, make Destroying America an all time campy skate classic. \n\n\n\nGeneral\n\nComplete name                    : Hook-Ups - Destroying America [2001].avi\nFormat                           : AVI\nFormat/Info                      : Audio Video Interleave\nFile size                        : 623 MiB\nDuration                         : 46mn 35s\nOverall bit rate                 : 1869 Kbps\n\nVideo\n\nFormat                           : MPEG-4 Visual\nFormat profile                   : Streaming Video@L1\nFormat settings, BVOP            : Yes\nFormat settings, QPel            : No\nFormat settings, GMC             : No warppoints\nFormat settings, Matrix          : Default\nMuxing mode                      : Packed bitstream\nCodec ID                         : XVID\nCodec ID/Hint                    : XviD\nDuration                         : 46mn 35s\nBit rate                         : 1 666 Kbps\nWidth                            : 720 pixels\nHeight                           : 480 pixels\nDisplay aspect ratio             : 1.500\nFrame rate                       : 29.970 fps\nStandard                         : NTSC\nResolution                       : 24 bits\nColorimetry                      : 4:2:0\nScan type                        : Progressive\nBits/(Pixel*Frame)               : 0.161\nStream size                      : 555 MiB (89%)\nWriting library                  : XviD 1.1.2 (UTC 2006-11-01)\n\nAudio\n\nFormat                           : MPEG Audio\nFormat version                   : Version 1\nFormat profile                   : Layer 3\nCodec ID                         : 55\nCodec ID/Hint                    : MP3\nDuration                         : 46mn 35s\nBit rate mode                    : Constant\nBit rate                         : 192 Kbps\nChannel(s)                       : 2 channels\nSampling rate                    : 44.1 KHz\nResolution                       : 16 bits\nVideo delay                      : 26ms\nStream size                      : 64.0 MiB (10%)\nAlignment                        : Split accross interleaves\nInterleave, duration             : 33 ms (1.00 video frame)\nTitle                            : Audio Stream\n\n","torrent":{"xt":"urn:btih:b93966257861eac55dfc016e69fb338ae27f9dd7","amp;dn":"Hook-Ups+-+Destroying+America+%5B2001%5D%5Bskateboarding%5D.avi","amp;tr":["udp%3A%2F%2Ftracker.openbittorrent.com%3A80","udp%3A%2F%2Fopen.demonii.com%3A1337","udp%3A%2F%2Ftracker.coppersurfer.tk%3A6969","udp%3A%2F%2Fexodus.desync.com%3A6969"],"infoHash":"b93966257861eac55dfc016e69fb338ae27f9dd7","infoHashBuffer":{"type":"Buffer","data":[185,57,102,37,120,97,234,197,93,252,1,110,105,251,51,138,226,127,157,215]},"announce":[],"urlList":[]}}